<?xml version="1.0" encoding="iso-8859-1"?>
<!-- Uploaded to: SVG Repo, www.svgrepo.com, Generator: SVG Repo Mixer Tools -->
<svg fill="#000000" height="800px" width="800px" version="1.1" id="Capa_1" xmlns="http://www.w3.org/2000/svg" xmlns:xlink="http://www.w3.org/1999/xlink" 
	 viewBox="0 0 611.999 611.999" xml:space="preserve">
<g>
	<g>
		<path d="M306,223.753c62.531,0,113.429,50.737,113.705,113.204h144.194c-0.053-27.649-4.424-54.661-13.014-80.566l-38.112,14.878
			c-1.762,0.688-3.575,1.013-5.359,1.013c-5.898,0-11.467-3.563-13.741-9.388c-2.962-7.587,0.788-16.138,8.375-19.099l37.958-14.818
			c-12.741-27.485-30.076-52.31-51.641-73.877c-8.381-8.381-17.262-16.111-26.59-23.195l-22.524,33.342
			c-2.85,4.218-7.499,6.494-12.233,6.494c-2.841,0-5.711-0.819-8.241-2.529c-6.749-4.559-8.524-13.726-3.965-20.474l22.486-33.286
			c-9.897-5.855-20.197-11.07-30.888-15.592c-27.323-11.557-56.075-18.22-85.662-19.88v26.855c0,8.144-6.602,14.747-14.747,14.747
			s-14.747-6.603-14.747-14.747V79.981c-29.588,1.66-58.34,8.323-85.662,19.88c-10.691,4.522-20.992,9.737-30.888,15.592
			l22.486,33.286c4.559,6.749,2.784,15.916-3.965,20.475c-2.53,1.709-5.401,2.529-8.241,2.529c-4.735,0-9.383-2.275-12.233-6.493
			l-22.524-33.342c-9.328,7.084-18.209,14.814-26.589,23.195c-21.566,21.566-38.9,46.391-51.642,73.877l37.959,14.818
			c7.587,2.962,11.337,11.513,8.375,19.099c-2.274,5.825-7.844,9.388-13.741,9.388c-1.784,0-3.596-0.326-5.359-1.013l-38.113-14.878
			c-8.59,25.904-12.961,52.917-13.014,80.566h144.194C192.569,274.49,243.469,223.753,306,223.753z"/>
		<path d="M19.662,532.018h20.883v-63.901c0-8.144,6.602-14.747,14.747-14.747s14.747,6.603,14.747,14.747v63.901h32.456V498.15
			c0-8.144,6.602-14.747,14.747-14.747s14.747,6.603,14.747,14.747v33.868h33.426v-63.901c0-8.144,6.602-14.747,14.747-14.747
			s14.747,6.603,14.747,14.747v63.901h34.081V498.15c0-8.144,6.602-14.747,14.747-14.747s14.747,6.603,14.747,14.747v33.868h32.771
			v-63.901c0-8.144,6.602-14.747,14.747-14.747s14.747,6.603,14.747,14.747v63.901h32.771V498.15
			c0-8.144,6.602-14.747,14.747-14.747c8.145,0,14.747,6.603,14.747,14.747v33.868h32.141v-63.901
			c0-8.144,6.602-14.747,14.747-14.747c8.145,0,14.747,6.603,14.747,14.747v63.901h35.367V498.15
			c0-8.144,6.602-14.747,14.747-14.747c8.145,0,14.747,6.603,14.747,14.747v33.868h32.455v-63.901
			c0-8.144,6.602-14.747,14.747-14.747c8.145,0,14.747,6.603,14.747,14.747v63.901h20.883c10.859,0,19.662-8.803,19.662-19.662
			V386.112c0-10.859-8.803-19.662-19.662-19.662H19.662C8.803,366.45,0,375.253,0,386.112v126.243
			C0,523.215,8.803,532.018,19.662,532.018z"/>
	</g>
</g>
</svg>