<?xml version="1.0" encoding="utf-8"?>

<!DOCTYPE svg PUBLIC "-//W3C//DTD SVG 1.1//EN" "http://www.w3.org/Graphics/SVG/1.1/DTD/svg11.dtd">
<!-- Uploaded to: SVG Repo, www.svgrepo.com, Generator: SVG Repo Mixer Tools -->
<svg height="800px" width="800px" version="1.1" id="_x32_" xmlns="http://www.w3.org/2000/svg" xmlns:xlink="http://www.w3.org/1999/xlink" 
	 viewBox="0 0 512 512"  xml:space="preserve">
<style type="text/css">
	.st0{fill:#000000;}
</style>
<g>
	<polygon class="st0" points="475.424,188.276 471.133,199.529 351.573,148.977 355.812,137.827 213.84,77.84 218.191,66.38 
		65.949,0 8.608,150.614 166.433,202.312 170.801,190.852 316.728,240.474 320.976,229.324 443.879,271.113 439.597,282.374 
		467.574,293.016 503.392,198.925 	"/>
	<path class="st0" d="M238.759,318.339L241.844,512h22.445l3.084-193.661c-4.506,1.534-9.306,2.412-14.303,2.412
		C248.064,320.752,243.265,319.873,238.759,318.339z"/>
	<path class="st0" d="M212.858,295.704L104.861,467.47l18.999,11.96l109.928-163.107
		C224.715,311.989,217.329,304.708,212.858,295.704z"/>
	<path class="st0" d="M272.354,316.323L382.281,479.43l18.99-11.96L293.275,295.704
		C288.802,304.708,281.418,311.989,272.354,316.323z"/>
	<path class="st0" d="M253.07,307.431c17.456,0,31.605-14.14,31.605-31.605v-26.245l-63.21-24.074v50.319
		C221.466,293.291,235.614,307.431,253.07,307.431z M253.07,264.194c6.436,0,11.641,5.222,11.641,11.632
		c0,6.428-5.205,11.649-11.641,11.649c-6.444,0-11.649-5.222-11.649-11.649C241.421,269.416,246.626,264.194,253.07,264.194z"/>
</g>
</svg>